<?xml version="1.0" encoding="UTF-8" standalone="no"?>
<!-- Created with Inkscape (http://www.inkscape.org/) -->

<svg
   width="210mm"
   height="297mm"
   viewBox="0 0 210 297"
   version="1.1"
   id="svg1"
   inkscape:version="1.4.4 (dcaf3e7d9e, 2026-05-05)"
   sodipodi:docname="albireogen3.svg"
   xmlns:inkscape="http://www.inkscape.org/namespaces/inkscape"
   xmlns:sodipodi="http://sodipodi.sourceforge.net/DTD/sodipodi-0.dtd"
   xmlns="http://www.w3.org/2000/svg"
   xmlns:svg="http://www.w3.org/2000/svg">
  <sodipodi:namedview
     id="namedview1"
     pagecolor="#ffffff"
     bordercolor="#000000"
     borderopacity="0.25"
     inkscape:showpageshadow="2"
     inkscape:pageopacity="0.0"
     inkscape:pagecheckerboard="0"
     inkscape:deskcolor="#d1d1d1"
     inkscape:document-units="mm"
     inkscape:zoom="0.61112514"
     inkscape:cx="396.80907"
     inkscape:cy="561.25984"
     inkscape:window-width="1210"
     inkscape:window-height="933"
     inkscape:window-x="0"
     inkscape:window-y="0"
     inkscape:window-maximized="1"
     inkscape:current-layer="layer1" />
  <defs
     id="defs1" />
  <g
     inkscape:label="Layer 1"
     inkscape:groupmode="layer"
     id="layer1">
    <rect
       style="fill:#d8cccc;fill-opacity:1;stroke-width:0.264999"
       id="rect1"
       width="169.28133"
       height="253.821"
       x="17.750729"
       y="38.099125"
       ry="26.40962" />
    <path
       style="fill:#6c5353;stroke-width:0.264999"
       d="m 63.642857,146.33527 c 0.432943,-11.6895 -1.298835,-9.09183 0.432943,-11.6895 1.73178,-2.59767 9.091837,-11.6895 9.091837,-11.6895 l 9.52478,-9.52478 3.463558,-1.29884 2.597668,0.86589 13.421287,-6.49417 9.09183,10.82362 18.18368,4.76239 14.28717,-0.43295 2.59767,7.79301 c 0,0 1.29883,6.06122 0.86588,8.22594 -0.43294,2.16473 -1.73178,13.42129 -1.73178,13.42129 h -11.6895 l -6.49417,-16.4519 -14.72011,-3.8965 -18.183677,0.43294 -11.25656,2.59767 -6.927114,9.95773 -3.463558,2.59766 z"
       id="path1" />
    <path
       style="fill:#6c5353;stroke-width:0.264999"
       d="m 62.290467,242.2354 c 0.432943,11.6895 -1.298835,9.09183 0.432943,11.6895 1.73178,2.59767 9.091837,11.68949 9.091837,11.68949 l 9.52478,9.52478 3.463558,1.29884 2.597668,-0.86589 13.421287,6.49417 9.09184,-10.82361 18.18368,-4.76239 14.28717,0.43295 2.59767,-7.79301 c 0,0 1.29883,-6.06122 0.86588,-8.22594 C 145.41584,248.72956 144.117,237.473 144.117,237.473 h -11.6895 l -6.49417,16.4519 -14.72011,3.8965 -18.183687,-0.43294 -11.25656,-2.59767 -6.927114,-9.95773 -3.463558,-2.59766 z"
       id="path1-3" />
    <path
       style="fill:#6c5353;stroke-width:0.264999"
       d="m 57.395302,232.57787 c -11.6895,-0.43295 -9.09183,1.29883 -11.6895,-0.43295 -2.59767,-1.73178 -11.68949,-9.09183 -11.68949,-9.09183 l -9.52478,-9.52478 -1.29884,-3.46356 0.86589,-2.59767 -6.494169,-13.42128 10.823609,-9.09184 4.76239,-18.18368 -0.43295,-14.28717 7.79301,-2.59767 c 0,0 6.06122,-1.29883 8.22594,-0.86588 2.16473,0.43294 13.42129,1.73178 13.42129,1.73178 v 11.6895 l -16.4519,6.49417 -3.8965,14.72011 0.43294,18.18368 2.59767,11.25656 9.95773,6.92711 2.59766,3.46356 z"
       id="path1-1" />
    <path
       style="fill:#6c5353;stroke-width:0.264999"
       d="m 147.01486,147.55329 c 11.6895,0.43294 9.09183,-1.29883 11.6895,0.43294 2.59767,1.73178 11.68949,9.09184 11.68949,9.09184 l 9.52478,9.52478 1.29884,3.46356 -0.86589,2.59767 6.49417,13.42128 -10.82361,9.09184 -4.76239,18.18368 0.43295,14.28717 -7.79301,2.59767 c 0,0 -6.06122,1.29883 -8.22594,0.86588 -2.16473,-0.43294 -13.42129,-1.73178 -13.42129,-1.73178 v -11.6895 l 16.4519,-6.49417 3.8965,-14.72011 -0.43294,-18.18368 -2.59767,-11.25656 -9.95773,-6.92712 -2.59766,-3.46356 z"
       id="path1-36" />
    <ellipse
       style="fill:#f62d0d;fill-opacity:1;stroke-width:0.264999"
       id="path2"
       cx="100.44313"
       cy="195.69095"
       rx="24.677841"
       ry="24.244898" />
    <ellipse
       style="fill:#f7fcad;stroke-width:0.264999"
       id="path3"
       cx="100.01021"
       cy="151.74707"
       rx="0.4329446"
       ry="3.2470846" />
    <ellipse
       style="fill:#d8cccc;fill-opacity:1;stroke-width:0.264999"
       id="path4"
       cx="89.403061"
       cy="52.386295"
       rx="10.607142"
       ry="11.25656" />
    <ellipse
       style="fill:#ccced8;fill-opacity:1;stroke-width:0.264999"
       id="path5"
       cx="102.39139"
       cy="73.817055"
       rx="42.749001"
       ry="31.113001" />
  </g>
</svg>
