<?xml version="1.0" encoding="UTF-8" standalone="no"?>
<svg
   version="1.0"
   width="250.000000pt"
   height="250.000000pt"
   viewBox="0 0 250.000000 250.000000"
   preserveAspectRatio="xMidYMid meet"
   id="svg3"
   sodipodi:docname="mizar.svg"
   inkscape:version="1.4.3 (0d15f75, 2025-12-25)"
   xmlns:inkscape="http://www.inkscape.org/namespaces/inkscape"
   xmlns:sodipodi="http://sodipodi.sourceforge.net/DTD/sodipodi-0.dtd"
   xmlns="http://www.w3.org/2000/svg"
   xmlns:svg="http://www.w3.org/2000/svg">
  <defs
     id="defs3">
    <inkscape:path-effect
       effect="bspline"
       id="path-effect5"
       is_visible="true"
       lpeversion="1.3"
       weight="33.333333"
       steps="2"
       helper_size="0"
       apply_no_weight="true"
       apply_with_weight="true"
       only_selected="false"
       uniform="false" />
    <inkscape:path-effect
       effect="bspline"
       id="path-effect4"
       is_visible="true"
       lpeversion="1.3"
       weight="33.333333"
       steps="2"
       helper_size="0"
       apply_no_weight="true"
       apply_with_weight="true"
       only_selected="false"
       uniform="false" />
  </defs>
  <sodipodi:namedview
     id="namedview3"
     pagecolor="#ffffff"
     bordercolor="#000000"
     borderopacity="0.25"
     inkscape:showpageshadow="2"
     inkscape:pageopacity="0.0"
     inkscape:pagecheckerboard="0"
     inkscape:deskcolor="#d1d1d1"
     inkscape:document-units="pt"
     showgrid="false"
     inkscape:zoom="2.9104515"
     inkscape:cx="166.64081"
     inkscape:cy="165.43825"
     inkscape:window-width="1680"
     inkscape:window-height="979"
     inkscape:window-x="-8"
     inkscape:window-y="-8"
     inkscape:window-maximized="1"
     inkscape:current-layer="svg3" />
  <metadata
     id="metadata1">
Created by potrace 1.16, written by Peter Selinger 2001-2019
</metadata>
  <path
     style="fill:#ffffff;stroke:none"
     d="m 52.61211,109.1755 c 1.674997,-1.71794 4.423712,-3.77948 7.086554,-5.71219 2.662841,-1.93271 5.239712,-3.736517 8.332052,-5.841026 3.092339,-2.104508 6.699955,-4.509585 10.092931,-6.571137 3.392976,-2.061552 6.571116,-3.779465 8.976257,-5.067932 2.405141,-1.288467 4.037159,-2.147422 6.356416,-3.35 2.319258,-1.202578 5.325605,-2.7487 7.47305,-3.693575 2.14745,-0.944875 3.43588,-1.288458 4.63845,-1.460253 1.20258,-0.171795 5.66922,-0.687179 7.21539,-0.429484 1.54617,0.257697 6.61407,1.030764 8.54678,1.546153 1.93271,0.51539 0.73012,1.030764 3.35002,1.932698 2.6199,0.901934 7.25829,2.190369 9.62048,3.221144 6.42697,1.599127 9.20961,4.478593 14.77435,7.988475 4.16607,2.662848 9.23393,5.325599 13.78654,8.675627 4.55261,3.35003 8.33198,8.93329 14.04422,13.65771 5.71224,4.72441 11.55313,9.10505 15.93392,12.97045 4.38079,3.8654 6.52817,6.18459 8.41793,7.64486 1.88976,1.46027 2.491,3.86537 3.56473,4.63845 1.07372,0.77307 1.58909,1.20255 1.07369,2.19039 -0.5154,0.98784 -2.06152,2.53396 -3.77948,3.99423 -1.71797,1.46026 -3.60767,2.83459 -6.65707,5.025 -3.04939,2.19042 -7.25828,5.19676 -11.16664,7.9455 -3.90837,2.74874 -7.51598,5.23972 -11.12371,7.77371 -3.60772,2.534 -7.21534,5.11087 -9.74933,6.74292 -2.53398,1.63206 -3.9942,2.31922 -5.49742,3.22115 -1.50322,0.90194 -3.04934,2.01857 -4.55256,2.70576 -1.50322,0.68718 -2.96345,0.94487 -4.29487,0.98781 -1.33141,0.043 -2.53396,-0.12884 -4.03718,-0.34359 -1.50322,-0.21475 -3.30702,-0.47243 -5.32563,-1.07372 -2.01861,-0.60129 -4.2519,-1.54614 -6.39935,-2.79167 -2.14746,-1.24552 -4.20895,-2.79165 -6.74296,-4.38076 -2.534,-1.58912 -5.54034,-3.22113 -7.55894,-4.55255 -2.0186,-1.33142 -3.04934,-2.36217 -4.42372,-3.77949 -1.37437,-1.41733 -3.09228,-3.22113 -4.93909,-4.81025 -1.84681,-1.58911 -3.82242,-2.96345 -6.01282,-4.85321 -2.1904,-1.88977 -4.595482,-4.29484 -6.742934,-6.14165 -2.147453,-1.8468 -4.037157,-3.13524 -5.841018,-4.50961 -1.803861,-1.37437 -3.521776,-2.8346 -6.14168,-4.68141 -2.619904,-1.84682 -6.141618,-4.0801 -9.448697,-5.71216 -3.30708,-1.63206 -6.399321,-2.66281 -8.761513,-3.73654 -2.362191,-1.07372 -3.994208,-2.19037 -5.540375,-3.17819 -1.546168,-0.98783 -3.00639,-1.84678 -4.337813,-2.36217 -1.331422,-0.51539 -2.53396,-0.68718 -3.564737,-1.24552 -1.030777,-0.55834 -1.889737,-1.5032 -2.44807,-2.53397 -0.558333,-1.03078 -0.816021,-2.14743 -0.944867,-3.0923 -0.128845,-0.94488 -0.128845,-1.71794 0.171801,-2.79167 0.300646,-1.07373 0.901915,-2.44806 2.576913,-4.16601 z"
     id="path4"
     sodipodi:nodetypes="sssssssssssssssssssssssssscssssssssssssssssssss" />
  <g
     transform="translate(0.000000,250.000000) scale(0.100000,-0.100000)"
     fill="#ffffff"
     stroke="none"
     id="g3">
    <path
       d="M1024 1631 c-129 -53 -290 -161 -268 -180 5 -4 38 -20 74 -36 36 -15 114 -55 173 -87 98 -55 111 -59 145 -52 20 4 45 7 55 6 9 -1 17 3 17 8 0 5 6 7 13 4 20 -7 111 31 172 72 60 40 110 104 101 131 -12 36 -180 120 -298 148 -86 20 -102 19 -184 -14z m126 -151 c0 -5 -4 -10 -10 -10 -5 0 -10 5 -10 10 0 6 5 10 10 10 6 0 10 -4 10 -10z"
       fill="#f74700"
       id="path1" />
    <path
       d="M1533 1403 c-47 -56 -141 -114 -233 -144 -36 -12 -69 -25 -74 -30 -14 -13 8 -33 115 -105 67 -45 109 -67 129 -67 48 0 179 71 243 131 31 30 57 61 57 68 0 32 -161 194 -192 194 -3 0 -23 -21 -45 -47z m37 -163 c0 -5 -9 -10 -21 -10 -11 0 -17 -4 -14 -10 4 -6 16 -8 27 -4 14 4 18 2 14 -5 -15 -24 -60 -4 -50 22 7 18 44 24 44 7z"
       fill="#c8c8c8"
       id="path2" />
    <path
       d="M487 1390 c-11 -16 -12 -31 -5 -63 5 -23 10 -49 11 -57 2 -9 6 -21 11 -28 4 -6 5 -12 1 -12 -3 0 -14 15 -25 33 -17 27 -20 28 -20 11 0 -37 55 -99 167 -188 176 -142 421 -302 621 -407 85 -45 98 -49 162 -49 39 0 86 6 105 14 64 27 513 354 540 393 31 47 33 67 2 32 -38 -45 -497 -361 -546 -376 -86 -27 -249 6 -236 48 10 31 -239 251 -430 379 -89 59 -206 122 -270 145 -27 10 -56 23 -62 28 -18 14 -26 72 -14 96 15 27 7 27 -12 1z m58 -180 c10 -11 16 -20 13 -20 -3 0 -13 9 -23 20 -10 11 -16 20 -13 20 3 0 13 -9 23 -20z m46 -37 c13 -16 12 -17 -3 -4 -10 7 -18 15 -18 17 0 8 8 3 21 -13z m50 -40 c13 -16 12 -17 -3 -4 -10 7 -18 15 -18 17 0 8 8 3 21 -13z m40 -30 c13 -16 12 -17 -3 -4 -10 7 -18 15 -18 17 0 8 8 3 21 -13z m70 -50 c13 -16 12 -17 -3 -4 -10 7 -18 15 -18 17 0 8 8 3 21 -13z"
       fill="#848484"
       id="path3" />
  </g>
</svg>
