<?xml version="1.0" standalone="no"?>
<!DOCTYPE svg PUBLIC "-//W3C//DTD SVG 20010904//EN"
 "http://www.w3.org/TR/2001/REC-SVG-20010904/DTD/svg10.dtd">
<svg version="1.0" xmlns="http://www.w3.org/2000/svg"
 width="250.000000pt" height="250.000000pt" viewBox="0 0 250.000000 250.000000"
 preserveAspectRatio="xMidYMid meet">
<metadata>
Created by potrace 1.16, written by Peter Selinger 2001-2019
</metadata>
<g transform="translate(0.000000,250.000000) scale(0.100000,-0.100000)"
fill="#000000" stroke="none">
<path d="M0 1250 l0 -1250 1250 0 1250 0 0 1250 0 1250 -1250 0 -1250 0 0
-1250z m1290 462 c182 -44 455 -199 641 -365 103 -91 134 -138 145 -218 11
-81 -21 -114 -306 -314 -47 -33 -98 -70 -115 -82 -16 -12 -60 -40 -96 -63 -61
-38 -70 -40 -141 -40 -71 0 -83 3 -160 43 -305 159 -730 462 -778 557 -41 80
-17 156 65 211 50 33 342 197 435 244 116 58 165 63 310 27z"/>
</g>
</svg>
