<?xml version="1.0" standalone="no"?>
<!DOCTYPE svg PUBLIC "-//W3C//DTD SVG 20010904//EN"
 "http://www.w3.org/TR/2001/REC-SVG-20010904/DTD/svg10.dtd">
<svg version="1.0" xmlns="http://www.w3.org/2000/svg"
 width="250.000000pt" height="250.000000pt" viewBox="0 0 250.000000 250.000000"
 preserveAspectRatio="xMidYMid meet">
<metadata>
Created by potrace 1.16, written by Peter Selinger 2001-2019
</metadata>
<g transform="translate(0.000000,250.000000) scale(0.100000,-0.100000)"
fill="#000000" stroke="none">
<path d="M1024 1631 c-129 -53 -290 -161 -268 -180 5 -4 38 -20 74 -36 36 -15
114 -55 173 -87 98 -55 111 -59 145 -52 20 4 45 7 55 6 9 -1 17 3 17 8 0 5 6
7 13 4 20 -7 111 31 172 72 60 40 110 104 101 131 -12 36 -180 120 -298 148
-86 20 -102 19 -184 -14z m126 -151 c0 -5 -4 -10 -10 -10 -5 0 -10 5 -10 10 0
6 5 10 10 10 6 0 10 -4 10 -10z" fill="#f74700"/>
<path d="M1533 1403 c-47 -56 -141 -114 -233 -144 -36 -12 -69 -25 -74 -30
-14 -13 8 -33 115 -105 67 -45 109 -67 129 -67 48 0 179 71 243 131 31 30 57
61 57 68 0 32 -161 194 -192 194 -3 0 -23 -21 -45 -47z m37 -163 c0 -5 -9 -10
-21 -10 -11 0 -17 -4 -14 -10 4 -6 16 -8 27 -4 14 4 18 2 14 -5 -15 -24 -60
-4 -50 22 7 18 44 24 44 7z" fill="#c8c8c8"/>
<path d="M487 1390 c-11 -16 -12 -31 -5 -63 5 -23 10 -49 11 -57 2 -9 6 -21
11 -28 4 -6 5 -12 1 -12 -3 0 -14 15 -25 33 -17 27 -20 28 -20 11 0 -37 55
-99 167 -188 176 -142 421 -302 621 -407 85 -45 98 -49 162 -49 39 0 86 6 105
14 64 27 513 354 540 393 31 47 33 67 2 32 -38 -45 -497 -361 -546 -376 -86
-27 -249 6 -236 48 10 31 -239 251 -430 379 -89 59 -206 122 -270 145 -27 10
-56 23 -62 28 -18 14 -26 72 -14 96 15 27 7 27 -12 1z m58 -180 c10 -11 16
-20 13 -20 -3 0 -13 9 -23 20 -10 11 -16 20 -13 20 3 0 13 -9 23 -20z m46 -37
c13 -16 12 -17 -3 -4 -10 7 -18 15 -18 17 0 8 8 3 21 -13z m50 -40 c13 -16 12
-17 -3 -4 -10 7 -18 15 -18 17 0 8 8 3 21 -13z m40 -30 c13 -16 12 -17 -3 -4
-10 7 -18 15 -18 17 0 8 8 3 21 -13z m70 -50 c13 -16 12 -17 -3 -4 -10 7 -18
15 -18 17 0 8 8 3 21 -13z" fill="#848484"/>
</g>
</svg>
