<?xml version="1.0" standalone="no"?>
<!DOCTYPE svg PUBLIC "-//W3C//DTD SVG 20010904//EN"
 "http://www.w3.org/TR/2001/REC-SVG-20010904/DTD/svg10.dtd">
<svg version="1.0" xmlns="http://www.w3.org/2000/svg"
 width="250.000000pt" height="250.000000pt" viewBox="0 0 250.000000 250.000000"
 preserveAspectRatio="xMidYMid meet">
<metadata>
Created by potrace 1.16, written by Peter Selinger 2001-2019
</metadata>
<g transform="translate(0.000000,250.000000) scale(0.100000,-0.100000)"
fill="#000000" stroke="none">
<path d="M0 1250 l0 -1250 1250 0 1250 0 0 1250 0 1250 -1250 0 -1250 0 0
-1250z m1290 462 c118 -28 315 -125 475 -232 90 -61 247 -200 273 -242 33 -53
47 -124 31 -154 -19 -36 -502 -374 -558 -391 -56 -18 -153 -11 -204 13 -27 13
-34 21 -27 29 8 9 -20 42 -99 118 -196 187 -423 342 -616 421 -51 20 -61 29
-68 56 -10 41 6 84 42 109 33 23 365 208 449 250 107 54 159 58 302 23z m-797
-427 c6 -22 23 -49 37 -60 59 -47 70 -63 14 -21 -62 47 -84 79 -84 120 0 29
14 44 18 19 1 -10 8 -36 15 -58z m227 -212 c0 -7 -89 59 -103 76 -7 8 14 -5
46 -28 31 -24 57 -45 57 -48z m31 -20 c13 -16 12 -17 -3 -4 -10 7 -18 15 -18
17 0 8 8 3 21 -13z"/>
<path d="M1024 1631 c-129 -53 -290 -161 -268 -180 5 -4 38 -20 74 -36 36 -15
114 -55 173 -87 98 -55 111 -59 145 -52 20 4 45 7 55 6 9 -1 17 3 17 8 0 5 6
7 13 4 20 -7 111 31 172 72 60 40 110 104 101 131 -12 36 -180 120 -298 148
-86 20 -102 19 -184 -14z m126 -151 c0 -5 -4 -10 -10 -10 -5 0 -10 5 -10 10 0
6 5 10 10 10 6 0 10 -4 10 -10z"/>
<path d="M1539 1410 c-46 -57 -124 -107 -226 -145 -48 -19 -89 -40 -91 -48 -3
-16 220 -167 248 -167 10 0 58 20 106 45 88 44 194 131 194 159 0 33 -155 196
-186 196 -7 0 -27 -18 -45 -40z m31 -170 c0 -5 -6 -10 -14 -10 -8 0 -18 5 -21
10 -3 6 3 10 14 10 12 0 21 -4 21 -10z m-2 -23 c6 3 12 -1 12 -7 0 -16 -52 -8
-58 8 -3 11 0 12 14 4 11 -5 25 -7 32 -5z"/>
</g>
</svg>
