<?xml version="1.0" encoding="UTF-8" standalone="no"?>
<svg
   version="1.0"
   width="250.000000pt"
   height="250.000000pt"
   viewBox="0 0 250.000000 250.000000"
   preserveAspectRatio="xMidYMid meet"
   id="svg3"
   sodipodi:docname="mizar2.svg"
   inkscape:version="1.4.4 (dcaf3e7d9e, 2026-05-05)"
   xmlns:inkscape="http://www.inkscape.org/namespaces/inkscape"
   xmlns:sodipodi="http://sodipodi.sourceforge.net/DTD/sodipodi-0.dtd"
   xmlns="http://www.w3.org/2000/svg"
   xmlns:svg="http://www.w3.org/2000/svg">
  <defs
     id="defs3">
    <inkscape:path-effect
       effect="bspline"
       id="path-effect4"
       is_visible="true"
       lpeversion="1.3"
       weight="33.333333"
       steps="2"
       helper_size="0"
       apply_no_weight="true"
       apply_with_weight="true"
       only_selected="false"
       uniform="false" />
  </defs>
  <sodipodi:namedview
     id="namedview3"
     pagecolor="#ffffff"
     bordercolor="#000000"
     borderopacity="0.25"
     inkscape:showpageshadow="2"
     inkscape:pageopacity="0.0"
     inkscape:pagecheckerboard="0"
     inkscape:deskcolor="#d1d1d1"
     inkscape:document-units="pt"
     inkscape:zoom="4.116"
     inkscape:cx="166.54519"
     inkscape:cy="127.79397"
     inkscape:window-width="1210"
     inkscape:window-height="933"
     inkscape:window-x="0"
     inkscape:window-y="0"
     inkscape:window-maximized="1"
     inkscape:current-layer="svg3" />
  <metadata
     id="metadata1">
Created by potrace 1.16, written by Peter Selinger 2001-2019
</metadata>
  <g
     transform="matrix(0.1,0,0,-0.1,-6.9576833,225.26157)"
     fill="#000000"
     stroke="none"
     id="g3">
    <path
       d="m 1024,1631 c -129,-53 -290,-161 -268,-180 5,-4 38,-20 74,-36 36,-15 114,-55 173,-87 98,-55 111,-59 145,-52 20,4 45,7 55,6 9,-1 17,3 17,8 0,5 6,7 13,4 20,-7 111,31 172,72 60,40 110,104 101,131 -12,36 -180,120 -298,148 -86,20 -102,19 -184,-14 z m 126,-151 c 0,-5 -4,-10 -10,-10 -5,0 -10,5 -10,10 0,6 5,10 10,10 6,0 10,-4 10,-10 z"
       id="path1" />
    <path
       d="m 1524,1397 c -61,-64 -123,-101 -224,-137 -52,-18 -75,-31 -75,-43 0,-19 197,-156 235,-163 54,-10 266,117 299,180 13,23 12,29 -14,66 -33,48 -141,150 -158,150 -7,0 -35,-24 -63,-53 z m 66,36 c -8,-3 -22,-11 -30,-17 -13,-10 -13,-9 -1,7 7,9 21,17 30,16 13,0 14,-1 1,-6 z m -20,-193 c 0,-5 -6,-10 -14,-10 -8,0 -18,5 -21,10 -3,6 3,10 14,10 12,0 21,-4 21,-10 z m -2,-23 c 6,3 12,-1 12,-7 0,-16 -52,-8 -58,8 -3,11 0,12 14,4 11,-5 25,-7 32,-5 z"
       id="path2" />
    <path
       d="m 487,1390 c -11,-16 -12,-31 -5,-63 5,-23 10,-49 11,-57 2,-9 6,-21 11,-28 4,-6 5,-12 1,-12 -3,0 -14,15 -25,33 -17,27 -20,28 -20,11 0,-37 55,-99 167,-188 176,-142 421,-302 621,-407 85,-45 98,-49 162,-49 39,0 86,6 105,14 64,27 513,354 540,393 31,47 33,67 2,32 -38,-45 -497,-361 -546,-376 -86,-27 -249,6 -236,47 10,32 -239,252 -429,380 -83,55 -232,135 -303,162 -35,13 -43,21 -48,51 -4,20 -2,44 4,56 15,27 7,27 -12,1 z m 58,-180 c 10,-11 16,-20 13,-20 -3,0 -13,9 -23,20 -10,11 -16,20 -13,20 3,0 13,-9 23,-20 z m 46,-37 c 13,-16 12,-17 -3,-4 -10,7 -18,15 -18,17 0,8 8,3 21,-13 z m 44,-33 c 10,-11 16,-20 13,-20 -3,0 -13,9 -23,20 -10,11 -16,20 -13,20 3,0 13,-9 23,-20 z m 46,-37 c 13,-16 12,-17 -3,-4 -10,7 -18,15 -18,17 0,8 8,3 21,-13 z m 70,-50 c 13,-16 12,-17 -3,-4 -10,7 -18,15 -18,17 0,8 8,3 21,-13 z"
       id="path3" />
  </g>
  <path
     style="fill:none;stroke:#0acf34;stroke-width:0.999997"
     d="m 44.521381,83.394072 c 1.154032,-0.971817 2.915451,-2.368805 4.585778,-3.644326 1.670326,-1.275522 3.249498,-2.429531 4.798348,-3.553207 1.548849,-1.123675 3.067282,-2.216947 4.251693,-3.036924 1.184411,-0.819976 2.034734,-1.366612 3.128041,-2.095484 1.093308,-0.728872 2.429531,-1.639933 3.948012,-2.642131 1.518482,-1.002197 3.219128,-2.09547 5.193155,-3.370994 1.974026,-1.275525 4.221309,-2.733221 6.225699,-4.008742 2.004391,-1.275521 3.765773,-2.368793 5.55758,-3.462099 1.791806,-1.093306 3.61393,-2.18658 5.314626,-3.097666 1.700697,-0.911086 3.279867,-1.639934 4.190948,-1.973995 0.911081,-0.334061 1.154029,-0.273324 1.518465,-0.334065 0.364436,-0.06074 0.850338,-0.242954 2.125867,-0.273321 1.275529,-0.03037 3.340602,0.09111 4.919817,0.273326 1.57921,0.182218 2.67248,0.425166 3.58357,0.546644 0.91109,0.121477 1.63993,0.121477 3.24953,0.485916 1.6096,0.364439 4.09983,1.093287 6.92421,1.943637 2.82437,0.85035 5.98272,1.82215 9.9004,3.431744 3.91769,1.609595 8.59446,3.856874 14.21285,6.772362 5.61838,2.915488 12.17802,6.498996 16.73344,9.201879 4.55541,2.702883 7.10638,4.525004 10.05224,6.77236 2.94586,2.247356 6.28641,4.919799 8.80708,6.954555 2.52066,2.034756 4.22131,3.431716 6.19534,5.010938 1.97402,1.579221 4.22131,3.340609 6.19533,4.950195 1.97402,1.609586 3.67466,3.067276 5.37536,4.676866 1.7007,1.60959 3.40135,3.37097 4.73761,5.0413 1.33626,1.67033 2.30805,3.2495 3.00655,4.40354 0.6985,1.15404 1.12366,1.88289 1.33624,2.52065 0.21259,0.63776 0.21259,1.18439 -0.97183,2.39919 -1.18443,1.21479 -3.55319,3.09765 -5.67906,4.7376 -2.12587,1.63996 -4.00873,3.03692 -6.10424,4.61614 -2.0955,1.57922 -4.40352,3.3406 -6.71161,4.98056 -2.30808,1.63995 -4.6161,3.15839 -7.37974,5.04131 -2.76364,1.88292 -5.98272,4.1302 -8.74635,6.07385 -2.76363,1.94365 -5.07165,3.58356 -7.77455,5.345 -2.7029,1.76144 -5.8005,3.6443 -8.23006,5.10203 -2.42956,1.45774 -4.19095,2.49027 -5.77017,2.97618 -1.57921,0.48591 -2.97616,0.42517 -4.3428,0.3948 -1.36663,-0.0304 -2.70285,-0.0304 -3.94801,-0.0607 -1.24515,-0.0304 -2.39916,-0.0911 -3.79616,-0.18221 -1.397,-0.0911 -3.03691,-0.21259 -4.49465,-0.6074 -1.45774,-0.3948 -2.73323,-1.06292 -3.70505,-1.70068 -0.97182,-0.63776 -1.63993,-1.24513 -2.39917,-2.33844 -0.75925,-1.09331 -1.60957,-2.67248 -3.37101,-4.88947 -1.76145,-2.21698 -4.43389,-5.07164 -6.83309,-7.44046 -2.39919,-2.36883 -4.525,-4.25169 -7.16716,-6.4383 -2.64216,-2.18661 -5.800507,-4.67685 -8.867834,-7.10642 -3.067327,-2.42956 -6.043459,-4.79832 -9.080417,-7.01529 -3.036958,-2.21698 -6.134567,-4.28206 -8.989306,-6.10423 -2.85474,-1.82217 -5.466446,-3.40134 -8.108602,-4.95019 -2.642155,-1.54885 -5.314597,-3.06728 -7.683423,-4.28207 -2.368827,-1.21478 -4.433897,-2.12584 -6.25607,-3.00656 -1.822172,-0.880716 -3.401342,-1.731038 -4.950192,-2.490277 -1.54885,-0.759239 -3.067282,-1.42735 -4.130215,-2.095481 -1.062933,-0.668131 -1.670306,-1.33624 -2.095478,-2.338438 -0.425173,-1.002199 -0.668122,-2.338422 -0.759229,-3.735425 -0.09111,-1.397002 -0.03037,-2.854702 0.273329,-3.856893 0.303698,-1.00219 0.850335,-1.548827 2.004368,-2.520644 z"
     id="path4"
     inkscape:path-effect="#path-effect4"
     inkscape:original-d="m 43.913994,83.819243 c 1.761419,-1.396988 3.522838,-2.793976 5.284257,-4.190963 1.579235,-1.154055 3.158406,-2.308065 4.737609,-3.462098 1.518495,-1.09332 3.036929,-2.18659 4.555393,-3.279885 0.850358,-0.546658 1.700681,-1.093294 2.551021,-1.639941 1.336275,-0.911097 2.672498,-1.822158 4.008746,-2.733237 1.700715,-1.093316 3.401361,-2.186589 5.102041,-3.279883 2.247373,-1.457755 4.494655,-2.915452 6.741987,-4.373178 1.761449,-1.093316 3.522832,-2.186588 5.284252,-3.279883 1.822193,-1.093316 3.644317,-2.186589 5.466472,-3.279883 1.579238,-0.728878 3.158408,-1.457727 4.737608,-2.186589 0.242962,0.06074 0.48591,0.121476 0.728865,0.182215 0.485917,-0.182219 0.97182,-0.364431 1.457722,-0.546647 2.065155,0.12148 4.130228,0.242954 6.195333,0.364432 1.09332,0.242958 2.18659,0.485908 3.27989,0.728862 0.72888,0 1.45772,0 2.18659,0 2.49033,0.728878 4.98056,1.457727 7.47084,2.186589 3.15847,0.971837 6.31682,1.943635 9.47522,2.915452 4.67697,2.247373 9.35374,4.494656 14.03062,6.741983 6.55989,3.583648 13.11953,7.167153 19.67929,10.750729 2.55107,1.822192 5.10204,3.644317 7.65307,5.466472 3.34069,2.67255 6.68124,5.344995 10.02186,8.017492 1.70071,1.397018 3.40136,2.793975 5.10204,4.190963 2.24737,1.761457 4.49466,3.52284 6.74198,5.28426 1.70072,1.457752 3.40136,2.915445 5.10205,4.373175 1.70071,1.76145 3.40135,3.52284 5.10204,5.28425 0.97183,1.57924 1.94363,3.15841 2.91545,4.73762 0.42518,0.72887 0.85034,1.45772 1.27551,2.18658 0,0.54666 0,1.09329 0,1.63995 -2.36885,1.88293 -4.73761,3.76578 -7.10641,5.64868 -1.88294,1.39702 -3.7658,2.79398 -5.6487,4.19096 -2.30811,1.76146 -4.61613,3.52284 -6.92419,5.28426 -2.30811,1.5185 -4.61613,3.03693 -6.9242,4.55539 -3.21921,2.24738 -6.43829,4.49466 -9.65743,6.74198 -2.30812,1.63998 -4.61614,3.27989 -6.9242,4.91983 -3.09774,1.88294 -6.19534,3.7658 -9.293,5.64869 -1.76146,1.03257 -3.52285,2.06511 -5.28427,3.09767 -1.39701,-0.0608 -2.79396,-0.12148 -4.19095,-0.18222 -1.33628,0 -2.6725,0 -4.00875,0 -1.15406,-0.0608 -2.30807,-0.12147 -3.4621,-0.18221 -1.63997,-0.12148 -3.27988,-0.24296 -4.91983,-0.36444 -1.27553,-0.66813 -2.55102,-1.33624 -3.82652,-2.00437 -0.66814,-0.6074 -1.33625,-1.21477 -2.00438,-1.82216 -0.85036,-1.57923 -1.70068,-3.1584 -2.55102,-4.7376 -2.67255,-2.85477 -5.34499,-5.70943 -8.01749,-8.56414 -2.12589,-1.88294 -4.2517,-3.7658 -6.37755,-5.64869 -3.15847,-2.49033 -6.316817,-4.98057 -9.475218,-7.47085 -2.976255,-2.36885 -5.952382,-4.73761 -8.928577,-7.10641 -3.097725,-2.06515 -6.19533,-4.13023 -9.293003,-6.19534 -2.611809,-1.57923 -5.223515,-3.1584 -7.835274,-4.7376 -2.672551,-1.5185 -5.344995,-3.03693 -8.017493,-4.5554 -2.065153,-0.9111 -4.130224,-1.82216 -6.195335,-2.73324 -1.579235,-0.850355 -3.158406,-1.700675 -4.737609,-2.551018 -1.518495,-0.668137 -3.036929,-1.336245 -4.555394,-2.004375 -0.607398,-0.668137 -1.214772,-1.336245 -1.822158,-2.004367 -0.242958,-1.336275 -0.485908,-2.672498 -0.728862,-4.00875 0.06074,-1.457753 0.121477,-2.915453 0.182215,-4.373175 0.546659,-0.54666 1.093295,-1.093298 1.639942,-1.639942 z" />
</svg>
