<?xml version="1.0" standalone="no"?>
<!DOCTYPE svg PUBLIC "-//W3C//DTD SVG 20010904//EN"
 "http://www.w3.org/TR/2001/REC-SVG-20010904/DTD/svg10.dtd">
<svg version="1.0" xmlns="http://www.w3.org/2000/svg"
 width="250.000000pt" height="250.000000pt" viewBox="0 0 250.000000 250.000000"
 preserveAspectRatio="xMidYMid meet">
<metadata>
Created by potrace 1.16, written by Peter Selinger 2001-2019
</metadata>
<g transform="translate(0.000000,250.000000) scale(0.100000,-0.100000)">
<path d="M460 1261 c0 -73 445 -403 788 -582 85 -45 98 -49 162 -49 39 0 86 6
105 14 64 27 513 354 540 393 31 47 33 67 2 32 -38 -45 -497 -361 -546 -376
-79 -25 -159 -11 -260 43 -216 117 -482 291 -673 441 -65 51 -118 89 -118 84z" fill='#111111'/>
</g>
</svg>
