<?xml version="1.0" standalone="no"?>
<!DOCTYPE svg PUBLIC "-//W3C//DTD SVG 20010904//EN"
 "http://www.w3.org/TR/2001/REC-SVG-20010904/DTD/svg10.dtd">
<svg version="1.0" xmlns="http://www.w3.org/2000/svg"
 width="250.000000pt" height="250.000000pt" viewBox="0 0 250.000000 250.000000"
 preserveAspectRatio="xMidYMid meet">
<metadata>
Created by potrace 1.16, written by Peter Selinger 2001-2019
</metadata>
<g transform="translate(0.000000,250.000000) scale(0.100000,-0.100000)">
<path d="M1524 1397 c-61 -64 -123 -101 -224 -137 -43 -15 -76 -33 -78 -41 -2
-10 38 -43 105 -89 128 -87 147 -91 243 -41 113 57 200 134 200 176 0 20 -161
185 -180 185 -8 0 -38 -24 -66 -53z m36 -157 c0 -5 -4 -10 -9 -10 -6 0 -13 5
-16 10 -3 6 1 10 9 10 9 0 16 -4 16 -10z m8 -23 c6 3 12 -1 12 -7 0 -16 -52
-8 -58 8 -3 11 0 12 14 4 11 -5 25 -7 32 -5z" fill='#c2c2c2'/>
</g>
</svg>
