<?xml version="1.0" standalone="no"?>
<!DOCTYPE svg PUBLIC "-//W3C//DTD SVG 20010904//EN"
 "http://www.w3.org/TR/2001/REC-SVG-20010904/DTD/svg10.dtd">
<svg version="1.0" xmlns="http://www.w3.org/2000/svg"
 width="250.000000pt" height="250.000000pt" viewBox="0 0 250.000000 250.000000"
 preserveAspectRatio="xMidYMid meet">
<metadata>
Created by potrace 1.16, written by Peter Selinger 2001-2019
</metadata>
<g transform="translate(0.000000,250.000000) scale(0.100000,-0.100000)"
fill="#000000" stroke="none">
<path d="M1014 1641 c-129 -53 -290 -161 -268 -180 5 -4 38 -20 74 -36 36 -15
114 -55 173 -87 98 -55 111 -59 145 -52 20 4 45 7 55 6 9 -1 17 3 17 8 0 5 6
7 13 4 20 -7 111 31 172 72 60 40 110 104 101 131 -12 36 -180 120 -298 148
-86 20 -102 19 -184 -14z m126 -151 c0 -5 -4 -10 -10 -10 -5 0 -10 5 -10 10 0
6 5 10 10 10 6 0 10 -4 10 -10z"/>
<path d="M1522 1413 c-48 -58 -128 -107 -230 -144 -53 -18 -77 -32 -77 -43 0
-18 217 -166 243 -166 9 0 57 20 107 44 115 57 205 142 188 178 -25 54 -155
178 -187 178 -2 0 -22 -21 -44 -47z m38 -163 c0 -5 -9 -10 -21 -10 -11 0 -17
-4 -14 -10 4 -6 16 -8 27 -4 14 4 18 2 14 -5 -15 -24 -60 -4 -50 22 7 18 44
24 44 7z"/>
<path d="M470 1388 c-30 -50 -27 -116 9 -165 75 -103 477 -386 759 -534 85
-45 98 -49 162 -49 39 0 86 6 105 14 64 27 513 354 540 393 31 47 33 67 2 32
-38 -45 -497 -361 -546 -376 -86 -27 -249 6 -236 47 10 32 -239 252 -429 380
-83 55 -232 135 -303 162 -35 13 -43 21 -48 51 -4 20 -2 44 4 56 18 33 3 24
-19 -11z"/>
</g>
</svg>
