<?xml version="1.0" standalone="no"?>
<!DOCTYPE svg PUBLIC "-//W3C//DTD SVG 20010904//EN"
 "http://www.w3.org/TR/2001/REC-SVG-20010904/DTD/svg10.dtd">
<svg version="1.0" xmlns="http://www.w3.org/2000/svg"
 width="250.000000pt" height="250.000000pt" viewBox="0 0 250.000000 250.000000"
 preserveAspectRatio="xMidYMid meet">
<metadata>
Created by potrace 1.16, written by Peter Selinger 2001-2019
</metadata>
<g transform="translate(0.000000,250.000000) scale(0.100000,-0.100000)"
fill="#000000" stroke="none">
<path d="M1024 1631 c-129 -53 -290 -161 -268 -180 5 -4 38 -20 74 -36 36 -15
114 -55 173 -88 l108 -59 55 15 c31 9 62 13 70 10 8 -3 14 0 14 6 0 6 6 8 13
5 18 -6 81 21 143 62 60 40 109 104 100 131 -12 36 -180 120 -298 148 -86 20
-102 19 -184 -14z m126 -151 c0 -5 -4 -10 -10 -10 -5 0 -10 5 -10 10 0 6 5 10
10 10 6 0 10 -4 10 -10z" fill='#ff0000'/>
<path d="M460 1274 c0 -37 55 -99 167 -188 176 -142 421 -302 621 -407 85 -45
98 -49 162 -49 39 0 86 6 105 14 64 27 513 354 540 393 31 47 33 67 2 32 -38
-45 -497 -361 -546 -376 -79 -25 -159 -11 -260 43 -284 154 -726 457 -773 532
-16 24 -18 25 -18 6z"/>
</g>
</svg>
