<?xml version="1.0" encoding="UTF-8" standalone="no"?>
<svg
   version="1.0"
   width="250.000000pt"
   height="250.000000pt"
   viewBox="0 0 250.000000 250.000000"
   preserveAspectRatio="xMidYMid meet"
   id="svg2"
   sodipodi:docname="mizar3.svg"
   inkscape:version="1.4.4 (dcaf3e7d9e, 2026-05-05)"
   xmlns:inkscape="http://www.inkscape.org/namespaces/inkscape"
   xmlns:sodipodi="http://sodipodi.sourceforge.net/DTD/sodipodi-0.dtd"
   xmlns="http://www.w3.org/2000/svg"
   xmlns:svg="http://www.w3.org/2000/svg">
  <defs
     id="defs2">
    <inkscape:path-effect
       effect="bspline"
       id="path-effect3"
       is_visible="true"
       lpeversion="1.3"
       weight="33.333333"
       steps="2"
       helper_size="0"
       apply_no_weight="true"
       apply_with_weight="true"
       only_selected="false"
       uniform="false" />
  </defs>
  <sodipodi:namedview
     id="namedview2"
     pagecolor="#ffffff"
     bordercolor="#000000"
     borderopacity="0.25"
     inkscape:showpageshadow="2"
     inkscape:pageopacity="0.0"
     inkscape:pagecheckerboard="0"
     inkscape:deskcolor="#d1d1d1"
     inkscape:document-units="pt"
     showgrid="false"
     inkscape:zoom="4.116"
     inkscape:cx="166.54519"
     inkscape:cy="200.68027"
     inkscape:window-width="1210"
     inkscape:window-height="933"
     inkscape:window-x="0"
     inkscape:window-y="0"
     inkscape:window-maximized="1"
     inkscape:current-layer="svg2" />
  <metadata
     id="metadata1">
Created by potrace 1.16, written by Peter Selinger 2001-2019
</metadata>
  <g
     transform="translate(0.000000,250.000000) scale(0.100000,-0.100000)"
     fill="#000000"
     stroke="none"
     id="g2">
    <path
       d="M1024 1631 c-129 -53 -290 -161 -268 -180 5 -4 38 -20 74 -36 36 -15 114 -55 173 -87 98 -55 111 -59 145 -52 20 4 45 7 55 6 9 -1 17 3 17 8 0 5 6 7 13 4 20 -7 111 31 172 72 60 40 110 104 101 131 -12 36 -180 120 -298 148 -86 20 -102 19 -184 -14z m126 -151 c0 -5 -4 -10 -10 -10 -5 0 -10 5 -10 10 0 6 5 10 10 10 6 0 10 -4 10 -10z"
       fill="#ffffff"
       id="path1" />
    <path
       d="M460 1274 c0 -37 55 -99 167 -188 176 -142 421 -302 621 -407 85 -45 98 -49 162 -49 39 0 86 6 105 14 64 27 513 354 540 393 31 47 33 67 2 32 -38 -45 -497 -361 -546 -376 -79 -25 -159 -11 -260 43 -284 154 -726 457 -773 532 -16 24 -18 25 -18 6z"
       fill="#6a6a6a"
       id="path2" />
  </g>
  <path
     style="fill:none;stroke:#cf200a;stroke-width:1;stroke-dasharray:none;stroke-opacity:1"
     d="m 47.011662,121.17347 c 0.668123,1.27551 1.336235,2.55099 2.642142,3.91764 1.305907,1.36665 3.249496,2.82434 5.527221,4.61615 2.277724,1.79181 4.889427,3.91762 7.410104,5.89164 2.520677,1.97402 4.950172,3.79614 6.802712,5.16277 1.852541,1.36663 3.12802,2.27769 4.676872,3.37099 1.548852,1.09331 3.370978,2.3688 4.980564,3.4621 1.609585,1.0933 3.006544,2.00436 4.859095,3.31026 1.852552,1.30589 4.16057,3.00654 6.559771,4.61613 2.399201,1.60959 4.88943,3.12802 6.924188,4.34281 2.034759,1.21478 3.613929,2.12584 4.980559,2.94582 1.36663,0.81997 2.52064,1.54882 3.70505,2.33843 1.18442,0.7896 2.39917,1.63993 3.85691,2.52065 1.45774,0.88072 3.15839,1.79178 5.01093,2.82435 1.85255,1.03257 3.85689,2.18658 5.67906,3.21914 1.82217,1.03256 3.46208,1.94362 4.76797,2.67249 1.30589,0.72887 2.27769,1.27551 3.55321,1.85253 1.27553,0.57703 2.8547,1.1844 4.16059,1.73105 1.30589,0.54665 2.33843,1.03255 3.27988,1.21477 0.94146,0.18221 1.79178,0.0607 2.58139,0.0911 0.78961,0.0304 1.51846,0.21258 2.21696,0.27331 0.69851,0.0607 1.36661,1e-5 2.2777,-0.0304 0.91109,-0.0304 2.0651,-0.0304 3.21915,-0.15185 1.15404,-0.12148 2.30805,-0.36443 3.40136,-0.66812 1.0933,-0.3037 2.12584,-0.66813 3.31026,-1.33626 1.18441,-0.66814 2.52063,-1.63993 4.43392,-2.85472 1.91329,-1.21479 4.40352,-2.67248 6.40791,-3.948 2.00439,-1.27552 3.52282,-2.3688 4.95019,-3.27988 1.42737,-0.91109 2.7636,-1.63994 4.00875,-2.42955 1.24515,-0.78961 2.39916,-1.63993 3.34061,-2.33843 0.94146,-0.6985 1.67031,-1.24514 2.42955,-1.79179 0.75924,-0.54665 1.54882,-1.09329 2.55102,-1.79179 1.0022,-0.69851 2.21694,-1.54883 3.37099,-2.3688 1.15404,-0.81998 2.24732,-1.60957 3.21915,-2.33843 0.97182,-0.72887 1.82215,-1.39698 2.58138,-1.974 0.75924,-0.57703 1.42735,-1.06293 2.15623,-1.60958 0.72887,-0.54666 1.51845,-1.15403 2.18658,-1.67031 0.66812,-0.51629 1.21477,-0.94145 1.70068,-1.27552 0.48591,-0.33406 0.91107,-0.57701 1.42736,-0.94144 0.51628,-0.36444 1.12366,-0.85034 1.54883,-1.21477 0.42517,-0.36444 0.66812,-0.60738 1.09329,-0.97182 0.42518,-0.36444 1.03256,-0.85034 1.57921,-1.30588 0.54665,-0.45554 1.03255,-0.8807 1.36661,-1.21477 0.33407,-0.33406 0.51628,-0.57701 0.97182,-0.97182 0.45555,-0.39481 1.1844,-0.94144 1.91326,-1.48809"
     id="path3"
     inkscape:path-effect="#path-effect3"
     inkscape:original-d="m 47.011662,121.17347 c 0.668123,1.27551 1.336235,2.55099 2.004373,3.82653 1.943676,1.45776 3.887265,2.91545 5.830904,4.37318 2.611811,2.12589 5.223517,4.25169 7.835277,6.37755 2.429591,1.82219 4.859086,3.64431 7.28863,5.46647 1.275535,0.9111 2.55102,1.82215 3.82653,2.73324 1.822191,1.27553 3.644316,2.55102 5.466471,3.82653 1.397018,0.91109 2.793975,1.82215 4.190963,2.73323 2.30811,1.70072 4.61613,3.40136 6.924202,5.10204 2.490331,1.5185 4.980563,3.03693 7.47084,4.5554 1.579238,0.9111 3.158408,1.82215 4.737608,2.73324 1.15406,0.72887 2.30807,1.45772 3.46211,2.18658 1.21478,0.85036 2.42954,1.70068 3.6443,2.55102 1.70072,0.9111 3.40137,1.82216 5.10204,2.73324 2.00442,1.15406 4.00876,2.30807 6.01313,3.4621 1.63997,0.91109 3.27988,1.82216 4.91982,2.73323 0.97184,0.54666 1.94364,1.0933 2.91545,1.63995 1.57924,0.60739 3.15841,1.21477 4.73762,1.82215 1.03257,0.48592 2.06511,0.97182 3.09766,1.45773 0.85036,-0.12148 1.70068,-0.24295 2.55102,-0.36443 0.72888,0.18222 1.45773,0.36443 2.18659,0.54664 0.66814,-0.0608 1.33625,-0.12147 2.00438,-0.18221 1.15405,0 2.30806,0 3.46209,0 1.15406,-0.24296 2.30807,-0.48591 3.4621,-0.72886 1.03258,-0.36444 2.06512,-0.72887 3.09767,-1.0933 1.33628,-0.97184 2.6725,-1.94363 4.00875,-2.91545 2.49033,-1.45776 4.98056,-2.91545 7.47084,-4.37318 1.5185,-1.09331 3.03693,-2.18659 4.5554,-3.27988 1.33627,-0.72888 2.6725,-1.45773 4.00874,-2.18659 1.15406,-0.85036 2.30807,-1.70068 3.4621,-2.55102 0.72888,-0.54666 1.45773,-1.0933 2.18659,-1.63994 0.78962,-0.54666 1.5792,-1.09329 2.3688,-1.63995 1.2148,-0.85035 2.42955,-1.70067 3.64432,-2.55102 1.09331,-0.78961 2.18659,-1.5792 3.27989,-2.3688 0.85035,-0.66813 1.70067,-1.33625 2.55102,-2.00437 0.66813,-0.48592 1.33624,-0.97182 2.00437,-1.45773 0.78962,-0.6074 1.5792,-1.21477 2.3688,-1.82216 0.54666,-0.42517 1.0933,-0.85034 1.63994,-1.27551 0.42519,-0.24295 0.85034,-0.48591 1.27551,-0.72886 0.6074,-0.48592 1.21478,-0.97181 1.82216,-1.45772 0.24296,-0.24297 0.48591,-0.48591 0.72886,-0.72887 0.6074,-0.48592 1.21478,-0.97182 1.82216,-1.45772 0.48592,-0.42518 0.97182,-0.85034 1.45773,-1.27551 0.18222,-0.24296 0.36443,-0.48591 0.54664,-0.72887 0.72888,-0.54666 1.45773,-1.09329 2.18659,-1.63994"
     sodipodi:nodetypes="ccccccccccccccccccccccccccccccccccccccccccccc" />
</svg>
