<?xml version="1.0" encoding="UTF-8" standalone="no"?>
<svg
   version="1.0"
   width="250.000000pt"
   height="250.000000pt"
   viewBox="0 0 250.000000 250.000000"
   preserveAspectRatio="xMidYMid meet"
   id="svg1"
   sodipodi:docname="mizar2a.svg"
   inkscape:version="1.4.4 (dcaf3e7d9e, 2026-05-05)"
   xmlns:inkscape="http://www.inkscape.org/namespaces/inkscape"
   xmlns:sodipodi="http://sodipodi.sourceforge.net/DTD/sodipodi-0.dtd"
   xmlns="http://www.w3.org/2000/svg"
   xmlns:svg="http://www.w3.org/2000/svg">
  <defs
     id="defs1">
    <inkscape:path-effect
       effect="bspline"
       id="path-effect2"
       is_visible="true"
       lpeversion="1.3"
       weight="33.333333"
       steps="2"
       helper_size="0"
       apply_no_weight="true"
       apply_with_weight="true"
       only_selected="false"
       uniform="false" />
  </defs>
  <sodipodi:namedview
     id="namedview1"
     pagecolor="#ffffff"
     bordercolor="#000000"
     borderopacity="0.25"
     inkscape:showpageshadow="2"
     inkscape:pageopacity="0.0"
     inkscape:pagecheckerboard="0"
     inkscape:deskcolor="#d1d1d1"
     inkscape:document-units="pt"
     showgrid="false"
     inkscape:zoom="3.57"
     inkscape:cx="166.52661"
     inkscape:cy="166.66667"
     inkscape:window-width="1210"
     inkscape:window-height="933"
     inkscape:window-x="0"
     inkscape:window-y="0"
     inkscape:window-maximized="1"
     inkscape:current-layer="svg1" />
  <metadata
     id="metadata1">
Created by potrace 1.16, written by Peter Selinger 2001-2019
</metadata>
  <g
     transform="translate(0.000000,250.000000) scale(0.100000,-0.100000)"
     id="g1" />
  <path
     style="fill:none;stroke:#cf200a;stroke-width:0.999997"
     d="m 45.798319,123.10924 c 1.120453,0.70028 2.240897,1.40056 3.641474,2.41598 1.400577,1.01542 3.081212,2.34592 4.831933,3.71149 1.75072,1.36556 3.571411,2.76609 5.182069,3.95658 1.610658,1.19048 3.011193,2.17086 4.446781,3.22129 1.435588,1.05043 2.906145,2.17085 4.516807,3.39636 1.610663,1.2255 3.36133,2.55601 4.866944,3.64145 1.505614,1.08544 2.766094,1.92576 4.026612,2.73109 1.260517,0.80533 2.520995,1.57562 4.341749,2.80113 1.820754,1.22551 4.201661,2.90614 5.95237,4.06161 1.750709,1.15547 2.871133,1.78571 4.376756,2.69609 1.505622,0.91037 3.396341,2.10083 5.077028,3.22128 1.680688,1.12046 3.151248,2.17086 5.112048,3.4664 1.96081,1.29553 4.41175,2.83612 6.05742,3.85153 1.64566,1.01541 2.48598,1.5056 3.7465,2.17087 1.26052,0.66528 2.94116,1.5056 4.13164,2.2409 1.19048,0.7353 1.89075,1.36553 3.01121,2.0308 1.12046,0.66527 2.66105,1.36554 3.92157,1.96078 1.26051,0.59525 2.24088,1.08544 3.39636,1.68069 1.15548,0.59525 2.48597,1.29551 3.57141,1.82072 1.08545,0.52521 1.92577,0.87535 2.83614,1.15546 0.91038,0.28011 1.89075,0.49019 2.69608,0.70027 0.80533,0.21009 1.43557,0.42017 2.31093,0.63026 0.87536,0.21009 1.99579,0.42017 3.0112,0.52521 1.01542,0.10504 1.92576,0.10504 2.73109,0.14006 0.80534,0.035 1.5056,0.10504 2.34594,0.035 0.84035,-0.07 1.82072,-0.28011 2.59104,-0.45518 0.77031,-0.17508 1.33052,-0.31513 2.20589,-0.66527 0.87536,-0.35015 2.06581,-0.91036 2.90615,-1.36555 0.84034,-0.45518 1.33053,-0.80532 2.2409,-1.43558 0.91038,-0.63026 2.24089,-1.54061 3.60645,-2.34594 1.36556,-0.80532 2.76609,-1.50559 4.27171,-2.45098 1.50562,-0.94539 3.11623,-2.13584 4.72689,-3.36135 1.61066,-1.2255 3.22127,-2.48598 4.55182,-3.39635 1.33054,-0.91037 2.38094,-1.47058 3.88656,-2.41597 1.50562,-0.94539 3.46637,-2.2759 5.32213,-3.64146 1.85576,-1.36556 3.60642,-2.76609 4.97198,-3.81652 1.36555,-1.05043 2.34592,-1.7507 3.7465,-2.80113 1.40057,-1.05044 3.22127,-2.45097 4.48178,-3.32632 1.26051,-0.87535 1.96078,-1.22549 2.69608,-1.68067 0.73531,-0.45519 1.5056,-1.0154 2.34595,-1.68067 0.84034,-0.66528 1.75069,-1.43557 2.55602,-2.13586 0.80533,-0.70028 1.50559,-1.33052 2.10084,-1.78571 0.59524,-0.45518 1.08543,-0.73529 1.57562,-1.0154"
     id="path2"
     inkscape:path-effect="#path-effect2"
     inkscape:original-d="m 45.798319,123.10924 c 1.120449,0.70029 2.240897,1.40056 3.361345,2.10084 1.680706,1.33056 3.361344,2.66106 5.042017,3.9916 1.820764,1.40059 3.641456,2.80112 5.462185,4.20168 1.400588,0.98041 2.80112,1.96079 4.20168,2.94118 1.470618,1.12047 2.941176,2.24089 4.411765,3.36134 1.750735,1.33056 3.501401,2.66107 5.252101,3.9916 1.260529,0.84035 2.521008,1.68067 3.78151,2.521 1.260533,0.77033 2.521013,1.54062 3.781515,2.31093 2.381003,1.68071 4.761908,3.36135 7.142858,5.04201 1.12047,0.63027 2.240895,1.26051 3.361342,1.89076 1.890795,1.19051 3.781515,2.38096 5.672273,3.57143 1.470615,1.05045 2.94118,2.10084 4.41176,3.15126 2.45103,1.54065 4.90197,3.08124 7.35294,4.62185 0.84036,0.49021 1.68068,0.98039 2.52101,1.47059 1.68071,0.84035 3.36135,1.68067 5.04201,2.52101 0.7003,0.63027 1.40057,1.2605 2.10085,1.89075 1.54064,0.7003 3.08123,1.40056 4.62185,2.10084 0.98041,0.49021 1.96078,0.9804 2.94117,1.4706 1.33057,0.70029 2.66106,1.40055 3.9916,2.10084 0.84035,0.35014 1.68067,0.70027 2.52101,1.05042 0.98041,0.21008 1.96078,0.42016 2.94118,0.63024 0.63026,0.21009 1.2605,0.42018 1.89075,0.63026 1.12047,0.21009 2.2409,0.42016 3.36134,0.63025 0.91039,0 1.82073,0 2.7311,0 0.70029,0.0701 1.40056,0.14006 2.10084,0.21009 0.98041,-0.21009 1.96078,-0.42018 2.94118,-0.63026 0.56023,-0.14005 1.12044,-0.28011 1.68066,-0.42016 1.19051,-0.56024 2.38096,-1.12045 3.57144,-1.68068 0.4902,-0.35014 0.98039,-0.70028 1.47058,-1.05042 1.33056,-0.91038 2.66107,-1.82073 3.9916,-2.73109 1.40059,-0.70029 2.80112,-1.40056 4.20168,-2.10084 1.61068,-1.1905 3.22129,-2.38095 4.83193,-3.57143 1.61068,-1.26053 3.22129,-2.52101 4.83194,-3.78151 1.05044,-0.56024 2.10084,-1.12045 3.15126,-1.68067 1.96082,-1.33056 3.92157,-2.66107 5.88235,-3.9916 1.75074,-1.40059 3.5014,-2.80112 5.2521,-4.20168 0.98041,-0.7003 1.96079,-1.40056 2.94117,-2.10085 1.82077,-1.40058 3.64147,-2.80111 5.46219,-4.20168 0.70029,-0.35014 1.40056,-0.70027 2.10085,-1.05042 0.77032,-0.56023 1.54061,-1.12044 2.31092,-1.68066 0.91038,-0.77033 1.82073,-1.54062 2.73109,-2.31093 0.70029,-0.63027 1.40056,-1.26051 2.10084,-1.89075 0.49021,-0.28012 0.9804,-0.56023 1.47059,-0.84034" />
</svg>
