<?xml version="1.0" standalone="no"?>
<!DOCTYPE svg PUBLIC "-//W3C//DTD SVG 20010904//EN"
 "http://www.w3.org/TR/2001/REC-SVG-20010904/DTD/svg10.dtd">
<svg version="1.0" xmlns="http://www.w3.org/2000/svg"
 width="250.000000pt" height="250.000000pt" viewBox="0 0 250.000000 250.000000"
 preserveAspectRatio="xMidYMid meet">
<metadata>
Created by potrace 1.16, written by Peter Selinger 2001-2019
</metadata>
<g transform="translate(0.000000,250.000000) scale(0.100000,-0.100000)"
fill="#000000" stroke="none">
<path d="M1024 1671 c-129 -53 -290 -161 -268 -180 5 -4 38 -20 74 -36 36 -15
114 -55 173 -87 98 -55 111 -59 145 -52 20 4 45 7 55 6 9 -1 17 3 17 8 0 5 6
7 13 4 20 -7 111 31 172 72 60 40 110 104 101 131 -12 36 -180 120 -298 148
-86 20 -102 19 -184 -14z m126 -151 c0 -5 -4 -10 -10 -10 -5 0 -10 5 -10 10 0
6 5 10 10 10 6 0 10 -4 10 -10z" fill="#ff0000"/>
<path d="M1543 1461 c-37 -59 -121 -113 -248 -161 -52 -19 -70 -30 -70 -44 0
-25 208 -166 244 -166 75 0 301 156 301 208 0 30 -157 192 -187 192 -12 0 -28
-12 -40 -29z m17 -181 c0 -5 -4 -10 -9 -10 -6 0 -13 5 -16 10 -3 6 1 10 9 10
9 0 16 -4 16 -10z" fill="#d5d5d5"/>
<path d="M460 1314 c0 -36 55 -98 167 -188 176 -142 421 -302 621 -407 85 -45
98 -49 162 -49 39 0 86 6 105 14 64 27 513 354 540 393 36 53 31 61 -13 22
-38 -35 -52 -45 -307 -225 -205 -145 -213 -149 -310 -149 -77 0 -84 2 -170 49
-281 152 -734 464 -779 536 -14 23 -15 24 -16 4z"/>
</g>
</svg>
