<?xml version="1.0" standalone="no"?>
<!DOCTYPE svg PUBLIC "-//W3C//DTD SVG 20010904//EN"
 "http://www.w3.org/TR/2001/REC-SVG-20010904/DTD/svg10.dtd">
<svg version="1.0" xmlns="http://www.w3.org/2000/svg"
 width="250.000000pt" height="250.000000pt" viewBox="0 0 250.000000 250.000000"
 preserveAspectRatio="xMidYMid meet">
<metadata>
Created by potrace 1.16, written by Peter Selinger 2001-2019
</metadata>
<g transform="translate(0.000000,250.000000) scale(0.100000,-0.100000)"
fill="#000000" stroke="none">
<path d="M1024 1631 c-129 -53 -290 -161 -268 -180 5 -4 38 -20 74 -36 36 -15
114 -55 173 -87 98 -55 111 -59 145 -52 20 4 45 7 55 6 9 -1 17 3 17 8 0 5 6
7 13 4 20 -7 111 31 172 72 60 40 110 104 101 131 -12 36 -180 120 -298 148
-86 20 -102 19 -184 -14z m126 -151 c0 -5 -4 -10 -10 -10 -5 0 -10 5 -10 10 0
6 5 10 10 10 6 0 10 -4 10 -10z"/>
<path d="M1524 1397 c-61 -64 -123 -101 -224 -137 -43 -15 -76 -33 -78 -41 -2
-10 38 -43 105 -89 128 -87 147 -91 243 -41 113 57 200 134 200 176 0 20 -161
185 -180 185 -8 0 -38 -24 -66 -53z m36 -157 c0 -5 -4 -10 -9 -10 -6 0 -13 5
-16 10 -3 6 1 10 9 10 9 0 16 -4 16 -10z m8 -23 c6 3 12 -1 12 -7 0 -16 -52
-8 -58 8 -3 11 0 12 14 4 11 -5 25 -7 32 -5z"/>
<path d="M486 1388 c-15 -24 -13 -76 4 -108 6 -11 8 -20 4 -20 -3 0 -1 -7 6
-15 7 -8 10 -15 6 -15 -3 0 -15 15 -26 33 -17 27 -20 28 -20 11 0 -37 55 -99
167 -188 176 -142 421 -302 621 -407 85 -45 98 -49 162 -49 39 0 86 6 105 14
64 27 513 354 540 393 31 47 33 67 2 32 -38 -45 -497 -361 -546 -376 -29 -9
-68 -13 -107 -9 -72 6 -139 33 -124 51 7 8 -20 40 -88 107 -194 189 -431 354
-617 428 -61 24 -70 31 -78 61 -5 20 -5 41 2 56 13 29 6 30 -13 1z m59 -178
c10 -11 16 -20 13 -20 -3 0 -13 9 -23 20 -10 11 -16 20 -13 20 3 0 13 -9 23
-20z m46 -37 c13 -16 12 -17 -3 -4 -10 7 -18 15 -18 17 0 8 8 3 21 -13z m50
-40 c13 -16 12 -17 -3 -4 -10 7 -18 15 -18 17 0 8 8 3 21 -13z m40 -30 c13
-16 12 -17 -3 -4 -10 7 -18 15 -18 17 0 8 8 3 21 -13z"/>
</g>
</svg>
